<svg width="17" height="16" viewBox="0 0 17 16" fill="none" xmlns="http://www.w3.org/2000/svg">
<path opacity="0.75" d="M2.39598 10.2627C1.32931 9.19608 0.795981 8.66274 0.795981 8C0.795982 7.33726 1.32931 6.80392 2.39598 5.73726L4.13324 4L8.13324 8L4.13324 12L2.39598 10.2627Z" fill="#0066FF"/>
<path d="M4.13324 12L8.13324 8L12.1332 12L10.396 13.7373C9.32931 14.8039 8.79598 15.3373 8.13324 15.3373C7.4705 15.3373 6.93716 14.8039 5.8705 13.7373L4.13324 12Z" fill="#0066FF"/>
<path opacity="0.5" d="M4.13324 4L6.24762 1.88562C7.13651 0.996731 7.58095 0.552286 8.13324 0.552286C8.68552 0.552286 9.12997 0.996731 10.0189 1.88562L12.1332 4L8.13324 8L4.13324 4Z" fill="#0066FF"/>
<path opacity="0.75" d="M8.13324 8L12.1332 4L13.8705 5.73726C14.9372 6.80393 15.4705 7.33726 15.4705 8C15.4705 8.66274 14.9372 9.19608 13.8705 10.2627L12.1332 12L8.13324 8Z" fill="#0066FF"/>
</svg>
