<svg width="124" height="20" viewBox="0 0 124 20" fill="none" xmlns="http://www.w3.org/2000/svg">
<path fill-rule="evenodd" clip-rule="evenodd" d="M0 1.57758V18.0518H5.73175C6.83415 18.0518 7.83973 17.847 8.74846 17.4375C9.66465 17.0279 10.4542 16.4546 11.1171 15.7175C11.7801 14.9729 12.2903 14.098 12.6478 13.0928C13.0054 12.0801 13.1841 10.9781 13.1841 9.78675C13.1841 8.58795 13.0054 7.48968 12.6478 6.49192C12.2903 5.48672 11.7801 4.61925 11.1171 3.88955C10.4542 3.1524 9.66465 2.58278 8.74846 2.1807C7.83973 1.77862 6.83415 1.57758 5.73175 1.57758H0ZM3.99994 15.0362H5.19545C5.92542 15.0362 6.58462 14.8239 7.17307 14.3995C7.76896 13.9751 8.24568 13.372 8.60321 12.5902C8.96075 11.8009 9.13952 10.8664 9.13952 9.78675C9.13952 8.69964 8.96075 7.76891 8.60321 6.99453C8.24568 6.22015 7.76896 5.62819 7.17307 5.21866C6.58462 4.80169 5.92542 4.5932 5.19545 4.5932H3.99994V15.0362Z" fill="#0D1723"/>
<path d="M15.0399 6.19036V18.0518H18.984V6.19036H15.0399Z" fill="#0D1723"/>
<path fill-rule="evenodd" clip-rule="evenodd" d="M25.1984 18.3087C24.3418 18.3087 23.5784 18.1746 22.908 17.9066C22.2376 17.6311 21.7087 17.2327 21.3214 16.7115C20.9341 16.1903 20.7404 15.5574 20.7404 14.8128C20.7404 13.9565 20.9825 13.264 21.4667 12.7354C21.9508 12.1992 22.5802 11.7934 23.3549 11.5179C24.1296 11.235 24.9489 11.0526 25.813 10.9707C27.0643 10.8515 27.9172 10.7473 28.3716 10.6579C28.8334 10.5611 29.0643 10.3973 29.0643 10.1665V10.1442C29.0643 9.78675 28.8744 9.49636 28.4945 9.27298C28.122 9.0496 27.6081 8.93791 26.9526 8.93791C26.2599 8.93791 25.7347 9.06449 25.3772 9.31765C25.0271 9.56337 24.8521 9.93939 24.8521 10.4457H20.9192C20.9192 9.47029 21.1873 8.65125 21.7236 7.98856C22.2674 7.31842 22.9974 6.8121 23.9135 6.46958C24.8297 6.12707 25.8539 5.95581 26.9861 5.95581C28.0587 5.95581 29.0531 6.1159 29.9693 6.43608C30.8929 6.75626 31.6378 7.24396 32.2039 7.89921C32.7775 8.55445 33.0642 9.38839 33.0642 10.401V15.2707C33.0642 15.3758 33.0625 15.48 33.0609 15.5834C33.0576 15.7878 33.0543 15.9888 33.0642 16.1866V18.0518H29.1313V16.9594C29.0571 17.0278 28.9789 17.0941 28.8967 17.1583C28.4274 17.5306 27.8725 17.8172 27.2319 18.0183C26.5913 18.2119 25.9135 18.3087 25.1984 18.3087ZM26.3381 15.4159C26.7999 15.4159 27.2431 15.3228 27.6677 15.1367C28.0922 14.9505 28.4423 14.6527 28.7179 14.2432C28.9415 13.911 29.0743 13.4883 29.1166 12.9749C28.9069 13.0251 28.6884 13.0718 28.461 13.1151C27.8353 13.2268 27.2245 13.3124 26.6286 13.372C25.9954 13.439 25.5225 13.547 25.2096 13.6959C24.8968 13.8448 24.7403 14.0905 24.7403 14.433C24.7403 14.7607 24.8744 15.0064 25.1426 15.1702C25.4182 15.334 25.8167 15.4159 26.3381 15.4159Z" fill="#0D1723"/>
<path d="M42.3592 18.0518H46.3144V12.0317C46.3144 11.6594 46.3517 11.3057 46.4262 10.9707C46.5006 10.6356 46.6124 10.3452 46.7613 10.0995C46.9103 9.84632 47.1003 9.649 47.3312 9.50752C47.5695 9.36605 47.8489 9.29532 48.1691 9.29532C48.5192 9.29532 48.7986 9.35861 49.0071 9.48519C49.2231 9.61177 49.3833 9.79047 49.4876 10.0213C49.5918 10.2447 49.6626 10.5053 49.6998 10.8031C49.7371 11.0935 49.7557 11.4062 49.7557 11.7413V18.0518H53.7445V10.6468C53.7445 9.79792 53.6327 9.01983 53.4093 8.31246C53.1858 7.60509 52.7948 7.03548 52.2361 6.60361C51.6849 6.17175 50.9065 5.95581 49.901 5.95581C48.9624 5.95581 48.158 6.17547 47.4876 6.61478C46.8441 7.02932 46.3447 7.60166 45.9895 8.33178C45.7733 7.61837 45.39 7.04604 44.8396 6.61478C44.2884 6.17547 43.5063 5.95581 42.4933 5.95581C41.5622 5.95581 40.7577 6.17547 40.0799 6.61478C39.6101 6.9174 39.2154 7.30595 38.8956 7.78041V6.19036H34.918V18.0518H38.8956V12.0652C38.8956 11.678 38.9328 11.3169 39.0073 10.9818C39.0818 10.6393 39.1972 10.3452 39.3536 10.0995C39.5101 9.84632 39.7037 9.649 39.9346 9.50752C40.173 9.36605 40.4523 9.29532 40.7726 9.29532C41.1376 9.29532 41.4244 9.36605 41.6329 9.50752C41.8489 9.649 42.0091 9.83887 42.1134 10.0771C42.2177 10.3154 42.2847 10.5797 42.3145 10.8701C42.3443 11.1531 42.3592 11.4472 42.3592 11.7525V18.0518Z" fill="#0D1723"/>
<path d="M78.9862 18.0518V11.8642C78.9862 11.4174 78.9341 11.0004 78.8298 10.6133C78.733 10.2186 78.5393 9.90216 78.2488 9.66389C77.9657 9.41817 77.5337 9.29532 76.9527 9.29532C76.4537 9.29532 76.0328 9.40701 75.6902 9.63039C75.3475 9.84632 75.0906 10.1553 74.9192 10.5574C74.7479 10.9595 74.6623 11.4323 74.6623 11.9759V18.0518H70.6847V6.19036H74.6623V8.01835C75.0748 7.4292 75.5925 6.95762 76.2153 6.60361C76.9751 6.17175 77.8279 5.95581 78.7739 5.95581C79.7646 5.95581 80.5653 6.15686 81.1761 6.55894C81.7944 6.96102 82.245 7.51947 82.528 8.23428C82.8185 8.94909 82.9638 9.77186 82.9638 10.7026V18.0518H78.9862Z" fill="#0D1723"/>
<path fill-rule="evenodd" clip-rule="evenodd" d="M87.5397 17.6273C88.3888 18.0964 89.3087 18.331 90.2994 18.331C91.2528 18.331 92.1169 18.0704 92.8915 17.5492C93.259 17.3019 93.5905 17.0144 93.8859 16.6867V18.0518H97.8747V1.57758H93.8859V7.51152C93.5866 7.19766 93.2514 6.92481 92.8804 6.69297C92.1057 6.20153 91.2454 5.95581 90.2994 5.95581C89.346 5.95581 88.4447 6.19036 87.5955 6.65946C86.7464 7.12855 86.0574 7.8173 85.5285 8.72571C84.9996 9.63411 84.7352 10.7436 84.7352 12.054C84.7352 13.4316 84.9922 14.5857 85.5062 15.5164C86.0201 16.4472 86.698 17.1508 87.5397 17.6273ZM93.8859 11.6743V12.4226C93.8859 12.9438 93.763 13.3943 93.5172 13.7741C93.2789 14.1464 92.9697 14.433 92.5899 14.6341C92.21 14.8351 91.8077 14.9356 91.3832 14.9356C90.7202 14.9356 90.1318 14.7048 89.6178 14.2432C89.1039 13.7815 88.8469 13.0518 88.8469 12.054C88.8469 11.0563 89.1039 10.3378 89.6178 9.89844C90.1318 9.45168 90.7202 9.2283 91.3832 9.2283C91.7929 9.2283 92.1876 9.3251 92.5675 9.5187C92.9474 9.70484 93.2602 9.98034 93.5061 10.3452C93.7593 10.7026 93.8859 11.1456 93.8859 11.6743Z" fill="#0D1723"/>
<path d="M118.576 6.19768V18.0591H122.52V6.19768H118.576Z" fill="#0D1723"/>
<path d="M108.549 6.23503V12.4226C108.549 12.8694 108.601 13.2863 108.705 13.6735C108.802 14.0682 108.996 14.3846 109.286 14.6229C109.569 14.8686 110.001 14.9915 110.582 14.9915C111.081 14.9915 111.502 14.8798 111.845 14.6564C112.187 14.4405 112.444 14.1315 112.616 13.7294C112.787 13.3273 112.873 12.8545 112.873 12.3109V6.23503H116.85V18.0964L112.873 18.0964V16.2684C112.46 16.8576 111.942 17.3292 111.32 17.6832C110.56 18.1151 109.707 18.331 108.761 18.331C107.77 18.331 106.97 18.1299 106.359 17.7279C105.741 17.3258 105.29 16.7673 105.007 16.0525C104.716 15.3377 104.571 14.5149 104.571 13.5842V6.23503H108.549Z" fill="#0D1723"/>
<path d="M17.4 0.15621C17.1917 -0.0520699 16.854 -0.0520699 16.6458 0.15621L14.4667 2.33529C14.2584 2.54357 14.2584 2.88126 14.4667 3.08954L16.6458 5.26863C16.854 5.47691 17.1917 5.47691 17.4 5.26863L19.5791 3.08954C19.7874 2.88126 19.7874 2.54357 19.5791 2.33529L17.4 0.15621Z" fill="#0D1723"/>
<path d="M120.888 0.15621C120.679 -0.0520699 120.342 -0.0520699 120.133 0.15621L117.954 2.33529C117.746 2.54357 117.746 2.88126 117.954 3.08954L120.133 5.26863C120.342 5.47691 120.679 5.47691 120.888 5.26863L123.067 3.08954C123.275 2.88126 123.275 2.54357 123.067 2.33529L120.888 0.15621Z" fill="#0D1723"/>
<path opacity="0.75" d="M56.396 14.2627C55.3293 13.1961 54.796 12.6627 54.796 12C54.796 11.3373 55.3293 10.8039 56.396 9.73726L58.1332 8L62.1332 12L58.1332 16L56.396 14.2627Z" fill="#0066FF"/>
<path d="M58.1332 16L62.1332 12L66.1332 16L64.396 17.7373C63.3293 18.8039 62.796 19.3373 62.1332 19.3373C61.4705 19.3373 60.9372 18.8039 59.8705 17.7373L58.1332 16Z" fill="#0066FF"/>
<path opacity="0.5" d="M58.1332 8L60.2476 5.88562C61.1365 4.99673 61.581 4.55229 62.1332 4.55229C62.6855 4.55229 63.13 4.99673 64.0189 5.88562L66.1332 8L62.1332 12L58.1332 8Z" fill="#0066FF"/>
<path opacity="0.75" d="M62.1332 12L66.1332 8L67.8705 9.73726C68.9372 10.8039 69.4705 11.3373 69.4705 12C69.4705 12.6627 68.9372 13.1961 67.8705 14.2627L66.1332 16L62.1332 12Z" fill="#0066FF"/>
</svg>
